<svg width="226" height="226" viewBox="0 0 226 226" fill="none" xmlns="http://www.w3.org/2000/svg">
<path fill-rule="evenodd" clip-rule="evenodd" d="M113 226C50.5918 226 0 175.408 0 113C0 50.5918 50.5918 0 113 0C175.408 0 226 50.5918 226 113C226 175.408 175.408 226 113 226ZM113 216C169.885 216 216 169.885 216 113C216 56.1147 169.885 10 113 10C56.1147 10 10 56.1147 10 113C10 169.885 56.1147 216 113 216Z" fill="#EDF0F4"/>
<path fill-rule="evenodd" clip-rule="evenodd" d="M113 0C110.239 0 108 2.23857 108 5C108 7.76143 110.239 10 113 10C169.885 10 216 56.1147 216 113C216 169.885 169.885 216 113 216C59.1971 216 14.5665 174.587 10.3279 121.283C10.1091 118.53 7.70008 116.476 4.94734 116.695C2.19461 116.914 0.140517 119.323 0.359404 122.075C5.01056 180.568 53.9716 226 113 226C175.408 226 226 175.408 226 113C226 50.5918 175.408 0 113 0Z" fill="#826AF9"/>
<path fill-rule="evenodd" clip-rule="evenodd" d="M113 210C59.4284 210 16 166.572 16 113C16 59.4284 59.4284 16 113 16C166.572 16 210 59.4284 210 113C210 166.572 166.572 210 113 210ZM113 200C161.049 200 200 161.049 200 113C200 64.9512 161.049 26 113 26C64.9512 26 26 64.9512 26 113C26 161.049 64.9512 200 113 200Z" fill="#EDF0F4"/>
<path fill-rule="evenodd" clip-rule="evenodd" d="M113 16C110.239 16 108 18.2386 108 21C108 23.7614 110.239 26 113 26C161.049 26 200 64.9512 200 113C200 161.049 161.049 200 113 200C64.9512 200 26 161.049 26 113C26 94.5741 31.7359 77.0243 42.2407 62.3705C43.8495 60.1262 43.3344 57.0026 41.0901 55.3937C38.8458 53.7848 35.7221 54.3 34.1132 56.5443C22.4006 72.883 16 92.4666 16 113C16 166.572 59.4284 210 113 210C166.572 210 210 166.572 210 113C210 59.4284 166.572 16 113 16Z" fill="#9E86FF"/>
<path fill-rule="evenodd" clip-rule="evenodd" d="M113 195C67.7127 195 31 158.287 31 113C31 67.7127 67.7127 31 113 31C158.287 31 195 67.7127 195 113C195 158.287 158.287 195 113 195ZM113 185C152.765 185 185 152.765 185 113C185 73.2355 152.765 41 113 41C73.2355 41 41 73.2355 41 113C41 152.765 73.2355 185 113 185Z" fill="#EDF0F4"/>
<path fill-rule="evenodd" clip-rule="evenodd" d="M113 31C110.239 31 108 33.2386 108 36C108 38.7614 110.239 41 113 41C152.765 41 185 73.2355 185 113C185 152.765 152.765 185 113 185C73.2355 185 41 152.765 41 113C41 87.9649 53.8742 65.1447 74.6684 52.0399C77.0046 50.5676 77.7049 47.4802 76.2326 45.144C74.7603 42.8078 71.6729 42.1075 69.3367 43.5798C45.6663 58.4972 31 84.4941 31 113C31 158.287 67.7127 195 113 195C158.287 195 195 158.287 195 113C195 67.7126 158.287 31 113 31Z" fill="#F7D2FF"/>
</svg>
